<?xml version="1.0" standalone="no"?>
<!DOCTYPE svg PUBLIC "-//W3C//DTD SVG 1.1//EN"
"http://www.w3.org/Graphics/SVG/1.1/DTD/svg11.dtd">
<svg height="600" version="1.1" width="800" xmlns="http://www.w3.org/2000/svg"><g><rect fill="#f9f9f9" height="600" width="800" x="0" y="0" /><g transform="translate(40 40)"><g transform="translate(16 0)"><text fill="#333" font-family="Monaco" font-size="16" x="0" y="0">Simple Pairs</text></g><g transform="translate(0 20)"><g transform="translate(16 0)"><g class="axis bottom"><g class="tick"><line stroke="#eee" stroke-width="1" x1="176.00" x2="176.00" y1="0" y2="482.0" /><text dy="1em" fill="#9c9c9c" font-family="Monaco" text-anchor="middle" x="176.00" y="486.0">0.5</text></g><g class="tick"><line stroke="#eee" stroke-width="1" x1="352.0" x2="352.0" y1="0" y2="482.0" /><text dy="1em" fill="#9c9c9c" font-family="Monaco" text-anchor="middle" x="352.0" y="486.0">1</text></g><g class="tick"><line stroke="#eee" stroke-width="1" x1="528.00" x2="528.00" y1="0" y2="482.0" /><text dy="1em" fill="#9c9c9c" font-family="Monaco" text-anchor="middle" x="528.00" y="486.0">1.5</text></g><g class="tick"><line stroke="#eee" stroke-width="1" x1="704" x2="704" y1="0" y2="482.0" /><text dy="1em" fill="#9c9c9c" font-family="Monaco" text-anchor="middle" x="704" y="486.0">2</text></g><g class="tick"><line stroke="#a8a8a8" stroke-width="1" x1="0" x2="0" y1="0" y2="482.0" /><text dy="1em" fill="#9c9c9c" font-family="Monaco" text-anchor="middle" x="0" y="486.0">0</text></g></g><g class="axis left"><g class="tick"><line stroke="#eee" stroke-width="1" x1="-4" x2="704.0" y1="358.50" y2="358.50" /><text dy="0.32em" fill="#9c9c9c" font-family="Monaco" text-anchor="end" x="-8" y="358.50">2</text></g><g class="tick"><line stroke="#eee" stroke-width="1" x1="-4" x2="704.0" y1="239.0" y2="239.0" /><text dy="0.32em" fill="#9c9c9c" font-family="Monaco" text-anchor="end" x="-8" y="239.0">4</text></g><g class="tick"><line stroke="#eee" stroke-width="1" x1="-4" x2="704.0" y1="119.50" y2="119.50" /><text dy="0.32em" fill="#9c9c9c" font-family="Monaco" text-anchor="end" x="-8" y="119.50">6</text></g><g class="tick"><line stroke="#eee" stroke-width="1" x1="-4" x2="704.0" y1="0" y2="0" /><text dy="0.32em" fill="#9c9c9c" font-family="Monaco" text-anchor="end" x="-8" y="0">8</text></g><g class="tick"><line stroke="#a8a8a8" stroke-width="1" x1="-4" x2="704.0" y1="478" y2="478" /><text dy="0.32em" fill="#9c9c9c" font-family="Monaco" text-anchor="end" x="-8" y="478">0</text></g></g><g><g class="series dots"><circle cx="0" cy="418.250" fill="#e41a1c" r="3" /><circle cx="704" cy="0" fill="#e41a1c" r="3" /></g></g></g></g></g></g></svg>